HIERARCHY
ROOT Hips
{
    OFFSET 0.000000 0.000000 0.000000
    CHANNELS 6 Xposition Yposition Zposition Zrotation Xrotation Yrotation
    JOINT Spine
    {
        OFFSET -0.000000 14.517291 0.000000
        CHANNELS 3 Zrotation Xrotation Yrotation
        JOINT Spine1
        {
            OFFSET -0.000000 37.558300 0.000000
            CHANNELS 3 Zrotation Xrotation Yrotation
            JOINT Neck
            {
                OFFSET -0.000000 37.404057 3.400369
                CHANNELS 3 Zrotation Xrotation Yrotation
                JOINT Head
                {
                    OFFSET -0.000000 24.785618 -3.540803
                    CHANNELS 3 Zrotation Xrotation Yrotation
                    End Site
                    {
                        OFFSET -0.000000 35.408028 0.000000
                    }
                }
            }
            JOINT LeftShoulder
            {
                OFFSET 6.992933 33.973492 -0.192664
                CHANNELS 3 Zrotation Xrotation Yrotation
                JOINT LeftArm
                {
                    OFFSET 21.527611 0.000000 0.000000
                    CHANNELS 3 Zrotation Xrotation Yrotation
                    JOINT LeftForeArm
                    {
                        OFFSET 56.353916 0.000000 0.000000
                        CHANNELS 3 Zrotation Xrotation Yrotation
                        JOINT LeftHand
                        {
                            OFFSET 47.774071 0.000000 0.000000
                            CHANNELS 3 Zrotation Xrotation Yrotation
                            End Site
                            {
                                OFFSET 26.556021 0.000000 0.000000
                            }
                        }
                    }
                }
            }
            JOINT RightShoulder
            {
                OFFSET -7.065357 33.973492 -0.192664
                CHANNELS 3 Zrotation Xrotation Yrotation
                JOINT RightArm
                {
                    OFFSET -21.527611 0.000000 0.000000
                    CHANNELS 3 Zrotation Xrotation Yrotation
                    JOINT RightForeArm
                    {
                        OFFSET -56.353916 0.000000 0.000000
                        CHANNELS 3 Zrotation Xrotation Yrotation
                        JOINT RightHand
                        {
                            OFFSET -47.774071 0.000000 0.000000
                            CHANNELS 3 Zrotation Xrotation Yrotation
                            End Site
                            {
                                OFFSET -26.556021 0.000000 0.000000
                            }
                        }
                    }
                }
            }
        }
    }
    JOINT LeftUpLeg
    {
        OFFSET 17.704014 0.000000 0.000000
        CHANNELS 3 Zrotation Xrotation Yrotation
        JOINT LeftLeg
        {
            OFFSET -0.000000 -81.181816 0.000000
            CHANNELS 3 Zrotation Xrotation Yrotation
            JOINT LeftFoot
            {
                OFFSET -0.000000 -62.821102 0.000000
                CHANNELS 3 Zrotation Xrotation Yrotation
                JOINT LeftToeBase
                {
                    OFFSET -0.000000 -11.507608 26.556021
                    CHANNELS 3 Zrotation Xrotation Yrotation
                    End Site
                    {
                        OFFSET -0.000000 0.000000 7.081605
                    }
                }
            }
        }
    }
    JOINT RightUpLeg
    {
        OFFSET -17.704014 0.000000 0.000000
        CHANNELS 3 Zrotation Xrotation Yrotation
        JOINT RightLeg
        {
            OFFSET -0.000000 -81.181816 0.000000
            CHANNELS 3 Zrotation Xrotation Yrotation
            JOINT RightFoot
            {
                OFFSET -0.000000 -62.821102 0.000000
                CHANNELS 3 Zrotation Xrotation Yrotation
                JOINT RightToeBase
                {
                    OFFSET -0.000000 -11.507608 26.556021
                    CHANNELS 3 Zrotation Xrotation Yrotation
                    End Site
                    {
                        OFFSET -0.000000 0.000000 7.081605
                    }
                }
            }
        }
    }
}
MOTION
Frames:    5
Frame Time:    0.008333
1.981605    152.658539    -23.752138    -3.027954    -0.089860    -3.683506    3.450263    -1.108848    9.618410    -3.276043    0.474788    3.208150    7.656292    -2.914905    -4.229485    4.137384    7.036733    -5.405054    3.077389    3.331130    -7.312385    -45.972168    13.287249    -38.356743    -4.598073    -22.441177    -125.210144    -1.315521    -30.368423    -2.973689    -15.893748    -1.168847    4.890821    31.576809    -19.147213    77.578178    4.208791    -16.735348    16.186012    11.885854    -12.805925    42.683285    19.380709    -27.279425    20.262753    -17.016264    21.940353    6.221976    8.071167    6.242755    45.172085    0.000000    0.000000    0.000000    -0.590049    6.969277    -26.922836    3.168328    30.532915    -9.885488    8.228765    -29.204533    -8.892580    0.000000    0.000000    0.000000    
2.028592    152.667053    -23.744921    -3.035122    -0.062385    -3.715172    3.450149    -1.115987    9.630392    -3.279594    0.469877    3.211954    7.657639    -2.884861    -4.228990    4.169216    6.964032    -5.397472    3.093132    3.339220    -7.311902    -45.969330    13.269703    -38.386890    -4.580553    -22.477270    -125.193115    -1.298039    -30.370396    -2.954133    -15.875288    -1.203229    4.888972    31.578722    -19.147015    77.583557    4.190136    -16.776482    16.164551    11.886283    -12.844748    42.679016    19.400295    -27.293282    20.290915    -17.035614    21.943167    6.260177    8.066101    6.218367    45.162678    0.000000    0.000000    0.000000    -0.604362    6.946102    -26.913467    3.154896    30.520264    -9.899641    8.268523    -29.170668    -8.844836    0.000000    0.000000    0.000000    
2.074854    152.675949    -23.736216    -3.044642    -0.042345    -3.740559    3.456558    -1.107207    9.638732    -3.290726    0.451017    3.214293    7.675821    -2.867460    -4.217918    4.181561    6.916434    -5.385167    3.113075    3.347094    -7.309691    -45.959755    13.266685    -38.405235    -4.576530    -22.519760    -125.180679    -1.282736    -30.401846    -2.939994    -15.864912    -1.201358    4.875863    31.559561    -19.144329    77.591972    4.159156    -16.851650    16.170403    11.895195    -12.909302    42.717308    19.417934    -27.302843    20.307127    -17.053398    21.950834    6.240963    8.067520    6.205317    45.189396    0.000000    0.000000    0.000000    -0.613376    6.928485    -26.904205    3.145706    30.505468    -9.901817    8.285128    -29.137629    -8.832829    0.000000    0.000000    0.000000    
2.120213    152.678970    -23.725430    -3.051072    -0.026504    -3.763564    3.462544    -1.100164    9.642682    -3.302571    0.446592    3.215592    7.676398    -2.864154    -4.209544    4.216709    6.884840    -5.372254    3.125275    3.339342    -7.307246    -45.947121    13.205464    -38.403610    -4.608740    -22.472427    -125.168633    -1.256636    -30.410343    -2.936499    -15.863665    -1.214419    4.860322    31.598984    -19.152048    77.621452    4.149789    -16.873190    16.168501    11.893499    -12.931437    42.709373    19.426279    -27.309240    20.316925    -17.069798    21.949945    6.228716    8.072019    6.191770    45.229763    0.000000    0.000000    0.000000    -0.628128    6.912364    -26.886042    3.148067    30.502666    -9.896277    8.288404    -29.118393    -8.855467    0.000000    0.000000    0.000000    
2.167657    152.682144    -23.717403    -3.055885    -0.017520    -3.780021    3.464322    -1.088774    9.639970    -3.306292    0.441993    3.214680    7.699718    -2.847696    -4.199854    4.214272    6.842258    -5.363735    3.133370    3.337946    -7.320322    -45.938923    13.175892    -38.395107    -4.612415    -22.494303    -125.155327    -1.191952    -30.436512    -2.886612    -15.864739    -1.221440    4.850914    31.604107    -19.150015    77.622818    4.135852    -16.886667    16.200960    11.878323    -12.954396    42.674160    19.425417    -27.311769    20.323900    -17.078451    21.954840    6.167113    8.085561    6.189854    45.288532    0.000000    0.000000    0.000000    -0.643420    6.904729    -26.855490    3.156644    30.494900    -9.890676    8.288115    -29.108685    -8.879511    0.000000    0.000000    0.000000    
